<svg width="360" height="50" viewBox="0 0 360 50" fill="none" xmlns="http://www.w3.org/2000/svg">
<g filter="url(#filter0_ii_68_281)">
<path d="M0 10C0 4.47715 4.47715 0 10 0H350C355.523 0 360 4.47715 360 10V15.8333V34.127V40C360 45.5229 355.523 50 350 50H162.707H68.0672H10C4.47716 50 0 45.5229 0 40V34.6429V15.873V10Z" fill="#900F37"/>
</g>
<path d="M0.5 10C0.5 4.75329 4.7533 0.5 10 0.5H350C355.247 0.5 359.5 4.7533 359.5 10V15.8333V34.127V40C359.5 45.2467 355.247 49.5 350 49.5H162.707H68.0672H10C4.7533 49.5 0.5 45.2467 0.5 40V34.6429V15.873V10Z" stroke="url(#paint0_linear_68_281)"/>
<defs>
<filter id="filter0_ii_68_281" x="-1" y="-1" width="362" height="52" filterUnits="userSpaceOnUse" color-interpolation-filters="sRGB">
<feFlood flood-opacity="0" result="BackgroundImageFix"/>
<feBlend mode="normal" in="SourceGraphic" in2="BackgroundImageFix" result="shape"/>
<feColorMatrix in="SourceAlpha" type="matrix" values="0 0 0 0 0 0 0 0 0 0 0 0 0 0 0 0 0 0 127 0" result="hardAlpha"/>
<feOffset dx="-1" dy="-1"/>
<feGaussianBlur stdDeviation="1"/>
<feComposite in2="hardAlpha" operator="arithmetic" k2="-1" k3="1"/>
<feColorMatrix type="matrix" values="0 0 0 0 0.333333 0 0 0 0 0.00694444 0 0 0 0 0.10815 0 0 0 0.78 0"/>
<feBlend mode="normal" in2="shape" result="effect1_innerShadow_68_281"/>
<feColorMatrix in="SourceAlpha" type="matrix" values="0 0 0 0 0 0 0 0 0 0 0 0 0 0 0 0 0 0 127 0" result="hardAlpha"/>
<feOffset dx="1" dy="1"/>
<feGaussianBlur stdDeviation="1"/>
<feComposite in2="hardAlpha" operator="arithmetic" k2="-1" k3="1"/>
<feColorMatrix type="matrix" values="0 0 0 0 0.904167 0 0 0 0 0.904167 0 0 0 0 0.904167 0 0 0 0.3 0"/>
<feBlend mode="normal" in2="effect1_innerShadow_68_281" result="effect2_innerShadow_68_281"/>
</filter>
<linearGradient id="paint0_linear_68_281" x1="20.25" y1="-6.75001" x2="139.214" y2="181.351" gradientUnits="userSpaceOnUse">
<stop stop-color="#727272"/>
<stop offset="0.19" stop-color="#B1B1B1"/>
<stop offset="0.5" stop-color="#E8E8E8"/>
<stop offset="0.76" stop-color="#A4A4A4"/>
<stop offset="1" stop-color="#424242"/>
</linearGradient>
</defs>
</svg>
