<svg width="613" height="340" viewBox="0 0 613 340" fill="none" xmlns="http://www.w3.org/2000/svg">
<line x1="135.745" y1="191.435" x2="270.38" y2="111.57" stroke="url(#paint0_linear_24_1611)" stroke-opacity="0.5"/>
<line x1="315.745" y1="160.435" x2="450.38" y2="80.5699" stroke="url(#paint1_linear_24_1611)" stroke-opacity="0.5"/>
<path d="M255.23 211.98L435.82 57L270.96 170.35L255.23 211.98Z" fill="url(#paint2_linear_24_1611)"/>
<path d="M435.82 57L239.5 152.18L175 114.94L435.82 57Z" fill="url(#paint3_linear_24_1611)"/>
<path d="M435.82 57L270.96 170.35L335.46 207.59L435.82 57Z" fill="url(#paint4_linear_24_1611)"/>
<path d="M270.96 170.35L435.82 57L239.5 152.18L255.23 211.98L270.96 170.35Z" fill="url(#paint5_linear_24_1611)"/>
<path opacity="0.4" d="M394.03 216.33L216.79 255.71L258.67 279.89L260.62 281.01L284.03 279.33L295.32 301.05L325.83 318.66L394.03 216.33Z" fill="#162026"/>
<line x1="435.745" y1="191.435" x2="570.38" y2="111.57" stroke="url(#paint6_linear_24_1611)"/>
<line x1="477.745" y1="80.4352" x2="612.38" y2="0.569922" stroke="url(#paint7_linear_24_1611)"/>
<line x1="128.745" y1="339.435" x2="263.38" y2="259.57" stroke="url(#paint8_linear_24_1611)" stroke-opacity="0.5"/>
<line x1="0.744906" y1="215.435" x2="135.38" y2="135.57" stroke="url(#paint9_linear_24_1611)"/>
<defs>
<linearGradient id="paint0_linear_24_1611" x1="136.255" y1="192.295" x2="270.89" y2="112.43" gradientUnits="userSpaceOnUse">
<stop stop-color="white" stop-opacity="0"/>
<stop offset="0.495" stop-color="white"/>
<stop offset="1" stop-color="white" stop-opacity="0"/>
</linearGradient>
<linearGradient id="paint1_linear_24_1611" x1="316.255" y1="161.295" x2="450.89" y2="81.43" gradientUnits="userSpaceOnUse">
<stop stop-color="white" stop-opacity="0"/>
<stop offset="0.495" stop-color="white"/>
<stop offset="1" stop-color="white" stop-opacity="0"/>
</linearGradient>
<linearGradient id="paint2_linear_24_1611" x1="341" y1="127.5" x2="345.525" y2="211.98" gradientUnits="userSpaceOnUse">
<stop stop-color="#255877"/>
<stop offset="1" stop-color="#11232E"/>
</linearGradient>
<linearGradient id="paint3_linear_24_1611" x1="358.5" y1="206.5" x2="295.094" y2="60.4373" gradientUnits="userSpaceOnUse">
<stop stop-color="#37779D"/>
<stop offset="0.697295" stop-color="#37779D"/>
<stop offset="1" stop-color="#3690C6"/>
</linearGradient>
<linearGradient id="paint4_linear_24_1611" x1="482.834" y1="175.205" x2="374.627" y2="115.231" gradientUnits="userSpaceOnUse">
<stop offset="0.56" stop-color="#4799CA"/>
<stop offset="1" stop-color="#37779D"/>
</linearGradient>
<linearGradient id="paint5_linear_24_1611" x1="336" y1="106.5" x2="337.66" y2="211.98" gradientUnits="userSpaceOnUse">
<stop stop-color="#285E7D"/>
<stop offset="1" stop-color="#0F3145"/>
</linearGradient>
<linearGradient id="paint6_linear_24_1611" x1="436.255" y1="192.295" x2="570.89" y2="112.43" gradientUnits="userSpaceOnUse">
<stop stop-color="white" stop-opacity="0"/>
<stop offset="0.495" stop-color="white"/>
<stop offset="1" stop-color="white" stop-opacity="0"/>
</linearGradient>
<linearGradient id="paint7_linear_24_1611" x1="478.255" y1="81.2953" x2="612.89" y2="1.42998" gradientUnits="userSpaceOnUse">
<stop stop-color="white" stop-opacity="0"/>
<stop offset="0.495" stop-color="white"/>
<stop offset="1" stop-color="white" stop-opacity="0"/>
</linearGradient>
<linearGradient id="paint8_linear_24_1611" x1="129.255" y1="340.295" x2="263.89" y2="260.43" gradientUnits="userSpaceOnUse">
<stop stop-color="white" stop-opacity="0"/>
<stop offset="0.495" stop-color="white"/>
<stop offset="1" stop-color="white" stop-opacity="0"/>
</linearGradient>
<linearGradient id="paint9_linear_24_1611" x1="1.25509" y1="216.295" x2="135.89" y2="136.43" gradientUnits="userSpaceOnUse">
<stop stop-color="white" stop-opacity="0"/>
<stop offset="0.495" stop-color="white"/>
<stop offset="1" stop-color="white" stop-opacity="0"/>
</linearGradient>
</defs>
</svg>
